%TF.GenerationSoftware,KiCad,Pcbnew,(7.0.0)*%
%TF.CreationDate,2023-04-07T11:52:31+02:00*%
%TF.ProjectId,projet codepo test,70726f6a-6574-4206-936f-6465706f2074,rev?*%
%TF.SameCoordinates,PX7414cc0PY6f80ec0*%
%TF.FileFunction,Copper,L1,Top*%
%TF.FilePolarity,Positive*%
%FSLAX46Y46*%
G04 Gerber Fmt 4.6, Leading zero omitted, Abs format (unit mm)*
G04 Created by KiCad (PCBNEW (7.0.0)) date 2023-04-07 11:52:31*
%MOMM*%
%LPD*%
G01*
G04 APERTURE LIST*
G04 Aperture macros list*
%AMRoundRect*
0 Rectangle with rounded corners*
0 $1 Rounding radius*
0 $2 $3 $4 $5 $6 $7 $8 $9 X,Y pos of 4 corners*
0 Add a 4 corners polygon primitive as box body*
4,1,4,$2,$3,$4,$5,$6,$7,$8,$9,$2,$3,0*
0 Add four circle primitives for the rounded corners*
1,1,$1+$1,$2,$3*
1,1,$1+$1,$4,$5*
1,1,$1+$1,$6,$7*
1,1,$1+$1,$8,$9*
0 Add four rect primitives between the rounded corners*
20,1,$1+$1,$2,$3,$4,$5,0*
20,1,$1+$1,$4,$5,$6,$7,0*
20,1,$1+$1,$6,$7,$8,$9,0*
20,1,$1+$1,$8,$9,$2,$3,0*%
G04 Aperture macros list end*
%TA.AperFunction,ComponentPad*%
%ADD10C,2.955000*%
%TD*%
%TA.AperFunction,SMDPad,CuDef*%
%ADD11RoundRect,0.100000X0.130000X0.100000X-0.130000X0.100000X-0.130000X-0.100000X0.130000X-0.100000X0*%
%TD*%
%TA.AperFunction,SMDPad,CuDef*%
%ADD12RoundRect,0.100000X-0.130000X-0.100000X0.130000X-0.100000X0.130000X0.100000X-0.130000X0.100000X0*%
%TD*%
%TA.AperFunction,SMDPad,CuDef*%
%ADD13RoundRect,0.100000X0.100000X-0.130000X0.100000X0.130000X-0.100000X0.130000X-0.100000X-0.130000X0*%
%TD*%
%TA.AperFunction,ComponentPad*%
%ADD14R,1.800000X1.800000*%
%TD*%
%TA.AperFunction,ComponentPad*%
%ADD15C,1.800000*%
%TD*%
%TA.AperFunction,SMDPad,CuDef*%
%ADD16R,1.475000X0.450000*%
%TD*%
%TA.AperFunction,ComponentPad*%
%ADD17C,1.358000*%
%TD*%
%TA.AperFunction,ComponentPad*%
%ADD18C,1.458000*%
%TD*%
%TA.AperFunction,ComponentPad*%
%ADD19R,1.358000X1.358000*%
%TD*%
%TA.AperFunction,SMDPad,CuDef*%
%ADD20R,2.200000X1.600000*%
%TD*%
%TA.AperFunction,SMDPad,CuDef*%
%ADD21R,1.528000X0.650000*%
%TD*%
%TA.AperFunction,SMDPad,CuDef*%
%ADD22RoundRect,0.100000X-0.100000X0.130000X-0.100000X-0.130000X0.100000X-0.130000X0.100000X0.130000X0*%
%TD*%
%TA.AperFunction,Conductor*%
%ADD23C,0.750000*%
%TD*%
%TA.AperFunction,Conductor*%
%ADD24C,0.250000*%
%TD*%
%TA.AperFunction,Conductor*%
%ADD25C,0.550000*%
%TD*%
%TA.AperFunction,Conductor*%
%ADD26C,0.650000*%
%TD*%
%TA.AperFunction,Conductor*%
%ADD27C,0.500000*%
%TD*%
G04 APERTURE END LIST*
D10*
%TO.P,J1,1*%
%TO.N,Net-(Arduino1-ADC1)*%
X-68495000Y43795000D03*
%TO.P,J1,2*%
%TO.N,Net-(IC1-OUT_A)*%
X-60695000Y48995000D03*
%TO.P,J1,3*%
%TO.N,unconnected-(J1-Pad3)*%
X-62095000Y46295000D03*
%TO.P,J1,4*%
%TO.N,unconnected-(J1-Pad4)*%
X-57495000Y39795000D03*
%TO.P,J1,5*%
%TO.N,Net-(C1-Pad2)*%
X-65095000Y39295000D03*
%TD*%
D11*
%TO.P,R10,1*%
%TO.N,0*%
X120921000Y2270000D03*
%TO.P,R10,2*%
%TO.N,Net-(IC2-S2)*%
X120281000Y2270000D03*
%TD*%
D12*
%TO.P,R8,1*%
%TO.N,Net-(Arduino1-ADC0)*%
X-31135000Y80720000D03*
%TO.P,R8,2*%
%TO.N,Net-(IC1-OUT_A)*%
X-30495000Y80720000D03*
%TD*%
D13*
%TO.P,R3,1*%
%TO.N,Net-(IC2-S4)*%
X121756000Y11030000D03*
%TO.P,R3,2*%
%TO.N,unconnected-(R3-Pad2)*%
X121756000Y11670000D03*
%TD*%
D12*
%TO.P,R7,1*%
%TO.N,Net-(C1-Pad2)*%
X-28860000Y32845000D03*
%TO.P,R7,2*%
%TO.N,Net-(Arduino1-+5V_1)*%
X-28220000Y32845000D03*
%TD*%
D14*
%TO.P,TH1,1*%
%TO.N,Net-(Arduino1-ADC0)*%
X-45444999Y82469999D03*
D15*
%TO.P,TH1,2*%
%TO.N,Net-(Arduino1-+5V_1)*%
X-45445000Y89970000D03*
%TD*%
D16*
%TO.P,IC2,1,S4*%
%TO.N,Net-(IC2-S4)*%
X110305999Y14694999D03*
%TO.P,IC2,2,S6*%
%TO.N,unconnected-(IC2-S6-Pad2)*%
X110305999Y15344999D03*
%TO.P,IC2,3,D*%
%TO.N,0*%
X110305999Y15994999D03*
%TO.P,IC2,4,S7*%
%TO.N,Net-(IC2-S7)*%
X110305999Y16644999D03*
%TO.P,IC2,5,S5*%
%TO.N,unconnected-(IC2-S5-Pad5)*%
X110305999Y17294999D03*
%TO.P,IC2,6,~{EN}*%
%TO.N,Net-(Arduino1-D2)*%
X110305999Y17944999D03*
%TO.P,IC2,7,VSS*%
%TO.N,unconnected-(IC2-VSS-Pad7)*%
X110305999Y18594999D03*
%TO.P,IC2,8,GND*%
%TO.N,Net-(IC1-OUT_A)*%
X110305999Y19244999D03*
%TO.P,IC2,9,A2*%
%TO.N,Net-(Arduino1-D8)*%
X104429999Y19244999D03*
%TO.P,IC2,10,A1*%
%TO.N,Net-(Arduino1-D18{slash}TX1)*%
X104429999Y18594999D03*
%TO.P,IC2,11,A0*%
%TO.N,Net-(Arduino1-D19{slash}RX1)*%
X104429999Y17944999D03*
%TO.P,IC2,12,S3*%
%TO.N,unconnected-(IC2-S3-Pad12)*%
X104429999Y17294999D03*
%TO.P,IC2,13,S0*%
%TO.N,unconnected-(IC2-S0-Pad13)*%
X104429999Y16644999D03*
%TO.P,IC2,14,S1*%
%TO.N,unconnected-(IC2-S1-Pad14)*%
X104429999Y15994999D03*
%TO.P,IC2,15,S2*%
%TO.N,Net-(IC2-S2)*%
X104429999Y15344999D03*
%TO.P,IC2,16,VDD*%
%TO.N,Net-(IC1-OUT_A)*%
X104429999Y14694999D03*
%TD*%
D17*
%TO.P,Arduino1,0,D0/RX0*%
%TO.N,unconnected-(Arduino1-D0{slash}RX0-Pad0)*%
X50800000Y38100000D03*
%TO.P,Arduino1,1,D1/TX0*%
%TO.N,unconnected-(Arduino1-D1{slash}TX0-Pad1)*%
X50800000Y40640000D03*
%TO.P,Arduino1,2,D2*%
%TO.N,Net-(Arduino1-D2)*%
X50800000Y43180000D03*
%TO.P,Arduino1,3,D3*%
%TO.N,0*%
X50800000Y45720000D03*
%TO.P,Arduino1,3V3,+3V3*%
%TO.N,unconnected-(Arduino1-+3V3-Pad3V3)*%
X2540000Y66040000D03*
%TO.P,Arduino1,4,D4*%
%TO.N,Net-(Arduino1-D19{slash}RX1)*%
X50800000Y48260000D03*
%TO.P,Arduino1,5,D5*%
%TO.N,unconnected-(Arduino1-D5-Pad5)*%
X50800000Y50800000D03*
%TO.P,Arduino1,5V_1,+5V_1*%
%TO.N,Net-(Arduino1-+5V_1)*%
X2540000Y63500000D03*
D18*
%TO.P,Arduino1,5V_2,+5V_2*%
%TO.N,unconnected-(Arduino1-+5V_2-Pad5V_2)*%
X50800000Y7620000D03*
%TO.P,Arduino1,5V_3,+5V_3*%
%TO.N,unconnected-(Arduino1-+5V_3-Pad5V_3)*%
X50800000Y5080000D03*
D17*
%TO.P,Arduino1,6,D6*%
%TO.N,unconnected-(Arduino1-D6-Pad6)*%
X50800000Y53340000D03*
%TO.P,Arduino1,7,D7*%
%TO.N,Net-(Arduino1-D18{slash}TX1)*%
X50800000Y55880000D03*
%TO.P,Arduino1,8,D8*%
%TO.N,Net-(Arduino1-D8)*%
X50800000Y59944000D03*
%TO.P,Arduino1,9,D9*%
%TO.N,unconnected-(Arduino1-D9-Pad9)*%
X50800000Y62484000D03*
%TO.P,Arduino1,10,D10*%
%TO.N,unconnected-(Arduino1-D10-Pad10)*%
X50800000Y65024000D03*
%TO.P,Arduino1,11,D11*%
%TO.N,unconnected-(Arduino1-D11-Pad11)*%
X50800000Y67564000D03*
%TO.P,Arduino1,12,D12*%
%TO.N,unconnected-(Arduino1-D12-Pad12)*%
X50800000Y70104000D03*
%TO.P,Arduino1,13,D13*%
%TO.N,unconnected-(Arduino1-D13-Pad13)*%
X50800000Y72644000D03*
%TO.P,Arduino1,14,D14/TX3*%
%TO.N,unconnected-(Arduino1-D14{slash}TX3-Pad14)*%
X50800000Y33020000D03*
%TO.P,Arduino1,15,D15/RX3*%
%TO.N,unconnected-(Arduino1-D15{slash}RX3-Pad15)*%
X50800000Y30480000D03*
%TO.P,Arduino1,16,D16/TX2*%
%TO.N,unconnected-(Arduino1-D16{slash}TX2-Pad16)*%
X50800000Y27940000D03*
%TO.P,Arduino1,17,D17/RX2*%
%TO.N,unconnected-(Arduino1-D17{slash}RX2-Pad17)*%
X50800000Y25400000D03*
%TO.P,Arduino1,18,D18/TX1*%
%TO.N,Net-(Arduino1-D18{slash}TX1)*%
X50800000Y22860000D03*
%TO.P,Arduino1,19,D19/RX1*%
%TO.N,Net-(Arduino1-D19{slash}RX1)*%
X50800000Y20320000D03*
%TO.P,Arduino1,20,D20/SDA*%
%TO.N,unconnected-(Arduino1-D20{slash}SDA-Pad20)*%
X50800000Y17780000D03*
%TO.P,Arduino1,21,D21/SCL*%
%TO.N,unconnected-(Arduino1-D21{slash}SCL-Pad21)*%
X50800000Y15240000D03*
D18*
%TO.P,Arduino1,22,D22*%
%TO.N,unconnected-(Arduino1-D22-Pad22)*%
X48260000Y7620000D03*
%TO.P,Arduino1,23,D23*%
%TO.N,unconnected-(Arduino1-D23-Pad23)*%
X48260000Y5080000D03*
%TO.P,Arduino1,24,D24*%
%TO.N,unconnected-(Arduino1-D24-Pad24)*%
X45720000Y7620000D03*
%TO.P,Arduino1,25,D25*%
%TO.N,unconnected-(Arduino1-D25-Pad25)*%
X45720000Y5080000D03*
%TO.P,Arduino1,26,D26*%
%TO.N,unconnected-(Arduino1-D26-Pad26)*%
X43180000Y7620000D03*
%TO.P,Arduino1,27,D27*%
%TO.N,unconnected-(Arduino1-D27-Pad27)*%
X43180000Y5080000D03*
%TO.P,Arduino1,28,D28*%
%TO.N,unconnected-(Arduino1-D28-Pad28)*%
X40640000Y7620000D03*
%TO.P,Arduino1,29,D29*%
%TO.N,unconnected-(Arduino1-D29-Pad29)*%
X40640000Y5080000D03*
%TO.P,Arduino1,30,D30*%
%TO.N,unconnected-(Arduino1-D30-Pad30)*%
X38100000Y7620000D03*
%TO.P,Arduino1,31,D31*%
%TO.N,unconnected-(Arduino1-D31-Pad31)*%
X38100000Y5080000D03*
%TO.P,Arduino1,32,D32*%
%TO.N,unconnected-(Arduino1-D32-Pad32)*%
X35560000Y7620000D03*
%TO.P,Arduino1,33,D33*%
%TO.N,unconnected-(Arduino1-D33-Pad33)*%
X35560000Y5080000D03*
%TO.P,Arduino1,34,D34*%
%TO.N,unconnected-(Arduino1-D34-Pad34)*%
X33020000Y7620000D03*
%TO.P,Arduino1,35,D35*%
%TO.N,unconnected-(Arduino1-D35-Pad35)*%
X33020000Y5080000D03*
%TO.P,Arduino1,36,D36*%
%TO.N,unconnected-(Arduino1-D36-Pad36)*%
X30480000Y7620000D03*
%TO.P,Arduino1,37,D37*%
%TO.N,unconnected-(Arduino1-D37-Pad37)*%
X30480000Y5080000D03*
%TO.P,Arduino1,38,D38*%
%TO.N,unconnected-(Arduino1-D38-Pad38)*%
X27940000Y7620000D03*
%TO.P,Arduino1,39,D39*%
%TO.N,unconnected-(Arduino1-D39-Pad39)*%
X27940000Y5080000D03*
%TO.P,Arduino1,40,D40*%
%TO.N,unconnected-(Arduino1-D40-Pad40)*%
X25400000Y7620000D03*
%TO.P,Arduino1,41,D41*%
%TO.N,unconnected-(Arduino1-D41-Pad41)*%
X25400000Y5080000D03*
%TO.P,Arduino1,42,D42*%
%TO.N,unconnected-(Arduino1-D42-Pad42)*%
X22860000Y7620000D03*
%TO.P,Arduino1,43,D43*%
%TO.N,unconnected-(Arduino1-D43-Pad43)*%
X22860000Y5080000D03*
%TO.P,Arduino1,44,D44*%
%TO.N,unconnected-(Arduino1-D44-Pad44)*%
X20320000Y7620000D03*
%TO.P,Arduino1,45,D45*%
%TO.N,unconnected-(Arduino1-D45-Pad45)*%
X20320000Y5080000D03*
%TO.P,Arduino1,46,D46*%
%TO.N,unconnected-(Arduino1-D46-Pad46)*%
X17780000Y7620000D03*
%TO.P,Arduino1,47,D47*%
%TO.N,unconnected-(Arduino1-D47-Pad47)*%
X17780000Y5080000D03*
%TO.P,Arduino1,48,D48*%
%TO.N,unconnected-(Arduino1-D48-Pad48)*%
X15240000Y7620000D03*
%TO.P,Arduino1,49,D49*%
%TO.N,unconnected-(Arduino1-D49-Pad49)*%
X15240000Y5080000D03*
%TO.P,Arduino1,50,D50*%
%TO.N,unconnected-(Arduino1-D50-Pad50)*%
X12700000Y7620000D03*
%TO.P,Arduino1,51,D51*%
%TO.N,unconnected-(Arduino1-D51-Pad51)*%
X12700000Y5080000D03*
%TO.P,Arduino1,52,D52*%
%TO.N,unconnected-(Arduino1-D52-Pad52)*%
X10160000Y7620000D03*
%TO.P,Arduino1,53,D53*%
%TO.N,unconnected-(Arduino1-D53-Pad53)*%
X10160000Y5080000D03*
D17*
%TO.P,Arduino1,AD0,ADC0*%
%TO.N,Net-(Arduino1-ADC0)*%
X2540000Y50800000D03*
%TO.P,Arduino1,AD1,ADC1*%
%TO.N,Net-(Arduino1-ADC1)*%
X2540000Y48260000D03*
%TO.P,Arduino1,AD2,ADC2*%
%TO.N,Net-(Arduino1-ADC2)*%
X2540000Y45720000D03*
%TO.P,Arduino1,AD3,ADC3*%
%TO.N,unconnected-(Arduino1-ADC3-PadAD3)*%
X2540000Y43180000D03*
%TO.P,Arduino1,AD4,ADC4*%
%TO.N,unconnected-(Arduino1-ADC4-PadAD4)*%
X2540000Y40640000D03*
%TO.P,Arduino1,AD5,ADC5*%
%TO.N,unconnected-(Arduino1-ADC5-PadAD5)*%
X2540000Y38100000D03*
%TO.P,Arduino1,AD6,ADC6*%
%TO.N,unconnected-(Arduino1-ADC6-PadAD6)*%
X2540000Y35560000D03*
%TO.P,Arduino1,AD7,ADC7*%
%TO.N,unconnected-(Arduino1-ADC7-PadAD7)*%
X2540000Y33020000D03*
%TO.P,Arduino1,AD8,ADC8*%
%TO.N,unconnected-(Arduino1-ADC8-PadAD8)*%
X2540000Y27940000D03*
%TO.P,Arduino1,AD9,ADC9*%
%TO.N,unconnected-(Arduino1-ADC9-PadAD9)*%
X2540000Y25400000D03*
%TO.P,Arduino1,AD10,ADC10*%
%TO.N,unconnected-(Arduino1-ADC10-PadAD10)*%
X2540000Y22860000D03*
%TO.P,Arduino1,AD11,ADC11*%
%TO.N,unconnected-(Arduino1-ADC11-PadAD11)*%
X2540000Y20320000D03*
%TO.P,Arduino1,AREF,AREF*%
%TO.N,unconnected-(Arduino1-PadAREF)*%
X50800000Y77724000D03*
%TO.P,Arduino1,CANRX0,CANRX0*%
%TO.N,unconnected-(Arduino1-PadCANRX0)*%
X2540000Y12700000D03*
%TO.P,Arduino1,CANTX0,CANTX0*%
%TO.N,unconnected-(Arduino1-PadCANTX0)*%
X2540000Y10160000D03*
%TO.P,Arduino1,DAC0,DAC0*%
%TO.N,unconnected-(Arduino1-PadDAC0)*%
X2540000Y17780000D03*
%TO.P,Arduino1,DAC1,DAC1*%
%TO.N,unconnected-(Arduino1-PadDAC1)*%
X2540000Y15240000D03*
%TO.P,Arduino1,GND1,GND1*%
%TO.N,Net-(IC1-OUT_A)*%
X2540000Y60960000D03*
%TO.P,Arduino1,GND2,GND2*%
%TO.N,unconnected-(Arduino1-PadGND2)*%
X2540000Y58420000D03*
%TO.P,Arduino1,GND3,GND3*%
%TO.N,unconnected-(Arduino1-PadGND3)*%
X50800000Y75184000D03*
D18*
%TO.P,Arduino1,GND4,GND4*%
%TO.N,unconnected-(Arduino1-PadGND4)*%
X7620000Y7620000D03*
%TO.P,Arduino1,GND5,GND5*%
%TO.N,unconnected-(Arduino1-PadGND5)*%
X7620000Y5080000D03*
D17*
%TO.P,Arduino1,IOREF,IOREF*%
%TO.N,unconnected-(Arduino1-PadIOREF)*%
X2540000Y71120000D03*
D19*
%TO.P,Arduino1,NC,NC*%
%TO.N,unconnected-(Arduino1-PadNC)*%
X2539999Y73659999D03*
D17*
%TO.P,Arduino1,RESET,~{RESET}*%
%TO.N,unconnected-(Arduino1-~{RESET}-PadRESET)*%
X2540000Y68580000D03*
%TO.P,Arduino1,SCL,SCL*%
%TO.N,unconnected-(Arduino1-PadSCL)*%
X50800000Y82804000D03*
%TO.P,Arduino1,SDA,SDA*%
%TO.N,unconnected-(Arduino1-PadSDA)*%
X50800000Y80264000D03*
%TO.P,Arduino1,VIN,VIN*%
%TO.N,unconnected-(Arduino1-PadVIN)*%
X2540000Y55880000D03*
%TD*%
D12*
%TO.P,R9,1*%
%TO.N,Net-(C1-Pad2)*%
X-11235000Y33020000D03*
%TO.P,R9,2*%
%TO.N,Net-(IC1-OUT_A)*%
X-10595000Y33020000D03*
%TD*%
%TO.P,R2,1*%
%TO.N,0*%
X132931000Y8420000D03*
%TO.P,R2,2*%
%TO.N,Net-(R1-Pad1)*%
X133571000Y8420000D03*
%TD*%
D13*
%TO.P,R6,1*%
%TO.N,0*%
X126536000Y16500000D03*
%TO.P,R6,2*%
%TO.N,Net-(IC2-S7)*%
X126536000Y17140000D03*
%TD*%
D20*
%TO.P,C1,1*%
%TO.N,Net-(IC1-OUT_A)*%
X-58969999Y21144999D03*
%TO.P,C1,2*%
%TO.N,Net-(C1-Pad2)*%
X-61969999Y21144999D03*
%TD*%
D12*
%TO.P,R11,1*%
%TO.N,Net-(IC2-S2)*%
X120566000Y-1630000D03*
%TO.P,R11,2*%
%TO.N,unconnected-(R11-Pad2)*%
X121206000Y-1630000D03*
%TD*%
D13*
%TO.P,R5,1*%
%TO.N,Net-(IC2-S7)*%
X127036000Y19150000D03*
%TO.P,R5,2*%
%TO.N,unconnected-(R5-Pad2)*%
X127036000Y19790000D03*
%TD*%
D21*
%TO.P,IC1,1,OUT_A*%
%TO.N,Net-(IC1-OUT_A)*%
X-16883999Y40989999D03*
%TO.P,IC1,2,-IN_A*%
%TO.N,Net-(Arduino1-ADC2)*%
X-16883999Y42259999D03*
%TO.P,IC1,3,+IN_A*%
%TO.N,unconnected-(IC1-+IN_A-Pad3)*%
X-16883999Y43529999D03*
%TO.P,IC1,4,V-*%
%TO.N,unconnected-(IC1-V--Pad4)*%
X-16883999Y44799999D03*
%TO.P,IC1,5,+IN_B*%
%TO.N,unconnected-(IC1-+IN_B-Pad5)*%
X-22305999Y44799999D03*
%TO.P,IC1,6,-IN_B*%
%TO.N,Net-(Arduino1-ADC2)*%
X-22305999Y43529999D03*
%TO.P,IC1,7,OUT_B*%
%TO.N,unconnected-(IC1-OUT_B-Pad7)*%
X-22305999Y42259999D03*
%TO.P,IC1,8,V+*%
%TO.N,Net-(Arduino1-+5V_1)*%
X-22305999Y40989999D03*
%TD*%
D22*
%TO.P,R4,1*%
%TO.N,0*%
X127456000Y11820000D03*
%TO.P,R4,2*%
%TO.N,Net-(IC2-S4)*%
X127456000Y11180000D03*
%TD*%
D11*
%TO.P,R1,1*%
%TO.N,Net-(R1-Pad1)*%
X133646000Y11895000D03*
%TO.P,R1,2*%
%TO.N,0*%
X133006000Y11895000D03*
%TD*%
D23*
%TO.N,Net-(Arduino1-+5V_1)*%
X-45445000Y89970000D02*
X-23930000Y89970000D01*
X-23930000Y89970000D02*
X2540000Y63500000D01*
D24*
%TO.N,Net-(IC1-OUT_A)*%
X104430000Y14570000D02*
X104355000Y14495000D01*
D23*
X-60995000Y39270000D02*
X-60995000Y43995000D01*
D24*
X2540000Y60960000D02*
X2540000Y60185000D01*
D23*
X-59082500Y37357500D02*
X-60995000Y39270000D01*
X-59070000Y47370000D02*
X-60695000Y48995000D01*
X-20516500Y37357500D02*
X-16884000Y40990000D01*
D24*
X104555000Y14570000D02*
X104655000Y14570000D01*
D23*
X-58970000Y21145000D02*
X-58970000Y37245000D01*
D24*
X5905000Y-3005000D02*
X6780000Y-3005000D01*
X5805000Y-3005000D02*
X5905000Y-3005000D01*
X-59070000Y21145000D02*
X-59320000Y20895000D01*
D23*
X-60995000Y43995000D02*
X-59070000Y45920000D01*
D25*
X6605000Y-2830000D02*
X6780000Y-3005000D01*
X-10595000Y33020000D02*
X-10595000Y8020000D01*
D23*
X-10595000Y34701000D02*
X-16884000Y40990000D01*
X101780000Y-3005000D02*
X101780000Y12045000D01*
D25*
X-10595000Y33020000D02*
X-10595000Y34701000D01*
D24*
X104430000Y14695000D02*
X104555000Y14570000D01*
X110306000Y19245000D02*
X110306000Y19219000D01*
X104430000Y14695000D02*
X104430000Y14570000D01*
D23*
X-17220000Y80720000D02*
X2540000Y60960000D01*
D24*
X-58970000Y21145000D02*
X-59070000Y21145000D01*
D23*
X-59070000Y45920000D02*
X-59070000Y47370000D01*
X6780000Y-3005000D02*
X101780000Y-3005000D01*
D24*
X-58970000Y37245000D02*
X-59082500Y37357500D01*
D23*
X-59082500Y37357500D02*
X-20516500Y37357500D01*
D25*
X-30495000Y80720000D02*
X-17220000Y80720000D01*
X101780000Y12045000D02*
X104430000Y14695000D01*
D23*
X-10595000Y8020000D02*
X255000Y-2830000D01*
X255000Y-2830000D02*
X6605000Y-2830000D01*
D24*
X110306000Y19219000D02*
X110355000Y19170000D01*
D23*
%TO.N,Net-(Arduino1-ADC0)*%
X-45445000Y82470000D02*
X-32885000Y82470000D01*
D25*
X-31970000Y79885000D02*
X-31135000Y80720000D01*
D23*
X-4975000Y50800000D02*
X-31970000Y77795000D01*
X2540000Y50800000D02*
X-4975000Y50800000D01*
D25*
X-31970000Y77795000D02*
X-31970000Y79885000D01*
X-32885000Y82470000D02*
X-31135000Y80720000D01*
D23*
%TO.N,Net-(Arduino1-ADC1)*%
X-61345000Y53295000D02*
X-68495000Y46145000D01*
X-59670000Y53295000D02*
X-61345000Y53295000D01*
X-68495000Y46145000D02*
X-68495000Y43795000D01*
X-54635000Y48260000D02*
X-59670000Y53295000D01*
X2540000Y48260000D02*
X-54635000Y48260000D01*
D24*
%TO.N,Net-(Arduino1-ADC2)*%
X-22306000Y43530000D02*
X-22146000Y43370000D01*
D26*
X-16884000Y42260000D02*
X-920000Y42260000D01*
X-22146000Y43370000D02*
X-19795000Y43370000D01*
X-18685000Y42260000D02*
X-16884000Y42260000D01*
X-920000Y42260000D02*
X2540000Y45720000D01*
X-19795000Y43370000D02*
X-18685000Y42260000D01*
D24*
X2555000Y45720000D02*
X2680000Y45845000D01*
X2540000Y45720000D02*
X2555000Y45720000D01*
D23*
%TO.N,Net-(Arduino1-D19{slash}RX1)*%
X50800000Y20320000D02*
X53175000Y17945000D01*
X53175000Y17945000D02*
X104430000Y17945000D01*
%TO.N,Net-(Arduino1-D18{slash}TX1)*%
X50800000Y22860000D02*
X98790000Y22860000D01*
D25*
X103055000Y18595000D02*
X104430000Y18595000D01*
X98790000Y22860000D02*
X103055000Y18595000D01*
D23*
%TO.N,Net-(Arduino1-D2)*%
X51505000Y95795000D02*
X122405000Y24895000D01*
D25*
X111480000Y17945000D02*
X110306000Y17945000D01*
D23*
X46245000Y43180000D02*
X36255000Y53170000D01*
X122405000Y24895000D02*
X122405000Y24520000D01*
X117555000Y19670000D02*
X117555000Y19295000D01*
X36255000Y80545000D02*
X51505000Y95795000D01*
X50800000Y43180000D02*
X46245000Y43180000D01*
X117555000Y19295000D02*
X112830000Y19295000D01*
X122405000Y24520000D02*
X117555000Y19670000D01*
D25*
X112830000Y19295000D02*
X111480000Y17945000D01*
D23*
X36255000Y53170000D02*
X36255000Y80545000D01*
D24*
%TO.N,0*%
X126106000Y16070000D02*
X126536000Y16500000D01*
D25*
X128480000Y11820000D02*
X132931000Y11820000D01*
D24*
X127456000Y11820000D02*
X128480000Y11820000D01*
D23*
X50800000Y45720000D02*
X47230000Y45720000D01*
D24*
X128630000Y11670000D02*
X128480000Y11820000D01*
D23*
X40980000Y82645000D02*
X49930000Y91595000D01*
D25*
X121685000Y14350000D02*
X113025000Y14350000D01*
X128630000Y10370000D02*
X128630000Y11670000D01*
D23*
X49930000Y91595000D02*
X118580000Y22945000D01*
D25*
X113025000Y14350000D02*
X111380000Y15995000D01*
X107305000Y16920000D02*
X107880000Y16345000D01*
X107880000Y16345000D02*
X108805000Y16345000D01*
X120921000Y2661000D02*
X128630000Y10370000D01*
X123405000Y16070000D02*
X126106000Y16070000D01*
D24*
X132931000Y11820000D02*
X133006000Y11895000D01*
D25*
X132931000Y8420000D02*
X132931000Y11820000D01*
X108805000Y16345000D02*
X109155000Y15995000D01*
X127456000Y14720000D02*
X126106000Y16070000D01*
D23*
X117455000Y21820000D02*
X107305000Y21820000D01*
D25*
X109155000Y15995000D02*
X110306000Y15995000D01*
D23*
X118580000Y22945000D02*
X117455000Y21820000D01*
D24*
X111380000Y15995000D02*
X110306000Y15995000D01*
D23*
X47230000Y45720000D02*
X40980000Y51970000D01*
D25*
X127456000Y11820000D02*
X127456000Y14720000D01*
X107305000Y21820000D02*
X107305000Y16920000D01*
D24*
X120921000Y2270000D02*
X120921000Y2661000D01*
D23*
X40980000Y51970000D02*
X40980000Y82645000D01*
D25*
X123405000Y16070000D02*
X121685000Y14350000D01*
D23*
%TO.N,Net-(Arduino1-D8)*%
X50800000Y59944000D02*
X63731000Y59944000D01*
X63731000Y59944000D02*
X104430000Y19245000D01*
%TO.N,Net-(C1-Pad2)*%
X-63070000Y20045000D02*
X-61970000Y21145000D01*
D25*
X-11235000Y33020000D02*
X-23770000Y33020000D01*
D23*
X-61970000Y21145000D02*
X-65095000Y24270000D01*
X-28860000Y23505000D02*
X-36370000Y15995000D01*
X-23770000Y33020000D02*
X-29045000Y27745000D01*
X-36370000Y15995000D02*
X-63070000Y15995000D01*
D25*
X-28860000Y32845000D02*
X-28860000Y23505000D01*
D23*
X-63070000Y15995000D02*
X-63070000Y20045000D01*
X-65095000Y24270000D02*
X-65095000Y39295000D01*
D24*
X-29045000Y27745000D02*
X-29045000Y27520000D01*
%TO.N,Net-(IC2-S4)*%
X127306000Y11030000D02*
X127456000Y11180000D01*
D25*
X113971000Y11030000D02*
X121756000Y11030000D01*
X110306000Y14695000D02*
X113971000Y11030000D01*
X121756000Y11030000D02*
X127306000Y11030000D01*
D24*
%TO.N,Net-(IC2-S7)*%
X110306000Y16645000D02*
X110381000Y16570000D01*
D25*
X126331000Y18445000D02*
X127036000Y19150000D01*
D27*
X122355000Y16570000D02*
X110381000Y16570000D01*
D24*
X126331000Y17345000D02*
X126536000Y17140000D01*
D25*
X123130000Y17345000D02*
X126331000Y17345000D01*
X122355000Y16570000D02*
X123130000Y17345000D01*
X126331000Y17345000D02*
X126331000Y18445000D01*
D24*
%TO.N,unconnected-(IC2-VSS-Pad7)*%
X110030000Y18595000D02*
X109930000Y18495000D01*
X110306000Y18595000D02*
X110030000Y18595000D01*
D25*
%TO.N,Net-(IC2-S2)*%
X118780000Y2270000D02*
X105705000Y15345000D01*
X120281000Y2270000D02*
X120281000Y-1131000D01*
D24*
X120580000Y-1430000D02*
X120566000Y-1444000D01*
D25*
X120281000Y-1131000D02*
X120580000Y-1430000D01*
X105705000Y15345000D02*
X104430000Y15345000D01*
X120566000Y-1444000D02*
X120566000Y-1630000D01*
X120281000Y2270000D02*
X118780000Y2270000D01*
%TO.N,Net-(R1-Pad1)*%
X133646000Y11895000D02*
X133646000Y8495000D01*
D24*
X133646000Y8495000D02*
X133571000Y8420000D01*
%TD*%
M02*
