M48
; DRILL file {KiCad (7.0.0)} date Thu Apr  6 19:01:49 2023
; FORMAT={-:-/ absolute / inch / decimal}
; #@! TF.CreationDate,2023-04-06T19:01:49+02:00
; #@! TF.GenerationSoftware,Kicad,Pcbnew,(7.0.0)
; #@! TF.FileFunction,Plated,1,2,PTH
FMAT,2
INCH
; #@! TA.AperFunction,Plated,PTH,ComponentDrill
T1C0.0335
; #@! TA.AperFunction,Plated,PTH,ComponentDrill
T2C0.0374
; #@! TA.AperFunction,Plated,PTH,ComponentDrill
T3C0.0472
; #@! TA.AperFunction,Plated,PTH,ComponentDrill
T4C0.0776
%
G90
G05
T1
X4.8921Y-1.7031
X4.8921Y-1.8031
X4.8921Y-1.9031
X4.8921Y-2.0031
X4.8921Y-2.1031
X4.8921Y-2.2031
X4.8921Y-2.3031
X4.8921Y-2.4031
X4.8921Y-2.6031
X4.8921Y-2.7031
X4.8921Y-2.8031
X4.8921Y-2.9031
X4.8921Y-3.0031
X4.8921Y-3.1031
X4.8921Y-3.2031
X4.8921Y-3.3031
X4.8921Y-3.5031
X4.8921Y-3.6031
X4.8921Y-3.7031
X4.8921Y-3.8031
X4.8921Y-3.9031
X4.8921Y-4.0031
X4.8921Y-4.1031
X4.8921Y-4.2031
X6.7921Y-1.3431
X6.7921Y-1.4431
X6.7921Y-1.5431
X6.7921Y-1.6431
X6.7921Y-1.7431
X6.7921Y-1.8431
X6.7921Y-1.9431
X6.7921Y-2.0431
X6.7921Y-2.1431
X6.7921Y-2.2431
X6.7921Y-2.4031
X6.7921Y-2.5031
X6.7921Y-2.6031
X6.7921Y-2.7031
X6.7921Y-2.8031
X6.7921Y-2.9031
X6.7921Y-3.0031
X6.7921Y-3.1031
X6.7921Y-3.3031
X6.7921Y-3.4031
X6.7921Y-3.5031
X6.7921Y-3.6031
X6.7921Y-3.7031
X6.7921Y-3.8031
X6.7921Y-3.9031
X6.7921Y-4.0031
T2
X5.0921Y-4.3031
X5.0921Y-4.4031
X5.1921Y-4.3031
X5.1921Y-4.4031
X5.2921Y-4.3031
X5.2921Y-4.4031
X5.3921Y-4.3031
X5.3921Y-4.4031
X5.4921Y-4.3031
X5.4921Y-4.4031
X5.5921Y-4.3031
X5.5921Y-4.4031
X5.6921Y-4.3031
X5.6921Y-4.4031
X5.7921Y-4.3031
X5.7921Y-4.4031
X5.8921Y-4.3031
X5.8921Y-4.4031
X5.9921Y-4.3031
X5.9921Y-4.4031
X6.0921Y-4.3031
X6.0921Y-4.4031
X6.1921Y-4.3031
X6.1921Y-4.4031
X6.2921Y-4.3031
X6.2921Y-4.4031
X6.3921Y-4.3031
X6.3921Y-4.4031
X6.4921Y-4.3031
X6.4921Y-4.4031
X6.5921Y-4.3031
X6.5921Y-4.4031
X6.6921Y-4.3031
X6.6921Y-4.4031
X6.7921Y-4.3031
X6.7921Y-4.4031
T3
X3.003Y-1.061
X3.003Y-1.3563
T4
X2.0955Y-2.8789
X2.2293Y-3.0561
X2.3474Y-2.7805
X2.4026Y-2.6742
X2.5285Y-3.0364
T0
M30
