%TF.GenerationSoftware,KiCad,Pcbnew,(7.0.0)*%
%TF.CreationDate,2023-04-07T11:52:31+02:00*%
%TF.ProjectId,projet codepo test,70726f6a-6574-4206-936f-6465706f2074,rev?*%
%TF.SameCoordinates,PX7414cc0PY6f80ec0*%
%TF.FileFunction,Legend,Top*%
%TF.FilePolarity,Positive*%
%FSLAX46Y46*%
G04 Gerber Fmt 4.6, Leading zero omitted, Abs format (unit mm)*
G04 Created by KiCad (PCBNEW (7.0.0)) date 2023-04-07 11:52:31*
%MOMM*%
%LPD*%
G01*
G04 APERTURE LIST*
%ADD10C,0.254000*%
%ADD11C,0.150000*%
%ADD12C,0.100000*%
%ADD13C,0.200000*%
%ADD14C,0.127000*%
%ADD15C,0.120000*%
G04 APERTURE END LIST*
D10*
%TO.C,J1*%
X-65429333Y44948427D02*
X-65429333Y44041284D01*
X-65429333Y44041284D02*
X-65489810Y43859855D01*
X-65489810Y43859855D02*
X-65610762Y43738903D01*
X-65610762Y43738903D02*
X-65792191Y43678427D01*
X-65792191Y43678427D02*
X-65913143Y43678427D01*
X-64159333Y43678427D02*
X-64885048Y43678427D01*
X-64522191Y43678427D02*
X-64522191Y44948427D01*
X-64522191Y44948427D02*
X-64643143Y44766998D01*
X-64643143Y44766998D02*
X-64764095Y44646046D01*
X-64764095Y44646046D02*
X-64885048Y44585570D01*
D11*
%TO.C,R10*%
X119958142Y852620D02*
X119624809Y1328810D01*
X119386714Y852620D02*
X119386714Y1852620D01*
X119386714Y1852620D02*
X119767666Y1852620D01*
X119767666Y1852620D02*
X119862904Y1805000D01*
X119862904Y1805000D02*
X119910523Y1757381D01*
X119910523Y1757381D02*
X119958142Y1662143D01*
X119958142Y1662143D02*
X119958142Y1519286D01*
X119958142Y1519286D02*
X119910523Y1424048D01*
X119910523Y1424048D02*
X119862904Y1376429D01*
X119862904Y1376429D02*
X119767666Y1328810D01*
X119767666Y1328810D02*
X119386714Y1328810D01*
X120910523Y852620D02*
X120339095Y852620D01*
X120624809Y852620D02*
X120624809Y1852620D01*
X120624809Y1852620D02*
X120529571Y1709762D01*
X120529571Y1709762D02*
X120434333Y1614524D01*
X120434333Y1614524D02*
X120339095Y1566905D01*
X121529571Y1852620D02*
X121624809Y1852620D01*
X121624809Y1852620D02*
X121720047Y1805000D01*
X121720047Y1805000D02*
X121767666Y1757381D01*
X121767666Y1757381D02*
X121815285Y1662143D01*
X121815285Y1662143D02*
X121862904Y1471667D01*
X121862904Y1471667D02*
X121862904Y1233572D01*
X121862904Y1233572D02*
X121815285Y1043096D01*
X121815285Y1043096D02*
X121767666Y947858D01*
X121767666Y947858D02*
X121720047Y900239D01*
X121720047Y900239D02*
X121624809Y852620D01*
X121624809Y852620D02*
X121529571Y852620D01*
X121529571Y852620D02*
X121434333Y900239D01*
X121434333Y900239D02*
X121386714Y947858D01*
X121386714Y947858D02*
X121339095Y1043096D01*
X121339095Y1043096D02*
X121291476Y1233572D01*
X121291476Y1233572D02*
X121291476Y1471667D01*
X121291476Y1471667D02*
X121339095Y1662143D01*
X121339095Y1662143D02*
X121386714Y1757381D01*
X121386714Y1757381D02*
X121434333Y1805000D01*
X121434333Y1805000D02*
X121529571Y1852620D01*
%TO.C,R8*%
X-30981667Y81402620D02*
X-31315000Y81878810D01*
X-31553095Y81402620D02*
X-31553095Y82402620D01*
X-31553095Y82402620D02*
X-31172143Y82402620D01*
X-31172143Y82402620D02*
X-31076905Y82355000D01*
X-31076905Y82355000D02*
X-31029286Y82307381D01*
X-31029286Y82307381D02*
X-30981667Y82212143D01*
X-30981667Y82212143D02*
X-30981667Y82069286D01*
X-30981667Y82069286D02*
X-31029286Y81974048D01*
X-31029286Y81974048D02*
X-31076905Y81926429D01*
X-31076905Y81926429D02*
X-31172143Y81878810D01*
X-31172143Y81878810D02*
X-31553095Y81878810D01*
X-30410238Y81974048D02*
X-30505476Y82021667D01*
X-30505476Y82021667D02*
X-30553095Y82069286D01*
X-30553095Y82069286D02*
X-30600714Y82164524D01*
X-30600714Y82164524D02*
X-30600714Y82212143D01*
X-30600714Y82212143D02*
X-30553095Y82307381D01*
X-30553095Y82307381D02*
X-30505476Y82355000D01*
X-30505476Y82355000D02*
X-30410238Y82402620D01*
X-30410238Y82402620D02*
X-30219762Y82402620D01*
X-30219762Y82402620D02*
X-30124524Y82355000D01*
X-30124524Y82355000D02*
X-30076905Y82307381D01*
X-30076905Y82307381D02*
X-30029286Y82212143D01*
X-30029286Y82212143D02*
X-30029286Y82164524D01*
X-30029286Y82164524D02*
X-30076905Y82069286D01*
X-30076905Y82069286D02*
X-30124524Y82021667D01*
X-30124524Y82021667D02*
X-30219762Y81974048D01*
X-30219762Y81974048D02*
X-30410238Y81974048D01*
X-30410238Y81974048D02*
X-30505476Y81926429D01*
X-30505476Y81926429D02*
X-30553095Y81878810D01*
X-30553095Y81878810D02*
X-30600714Y81783572D01*
X-30600714Y81783572D02*
X-30600714Y81593096D01*
X-30600714Y81593096D02*
X-30553095Y81497858D01*
X-30553095Y81497858D02*
X-30505476Y81450239D01*
X-30505476Y81450239D02*
X-30410238Y81402620D01*
X-30410238Y81402620D02*
X-30219762Y81402620D01*
X-30219762Y81402620D02*
X-30124524Y81450239D01*
X-30124524Y81450239D02*
X-30076905Y81497858D01*
X-30076905Y81497858D02*
X-30029286Y81593096D01*
X-30029286Y81593096D02*
X-30029286Y81783572D01*
X-30029286Y81783572D02*
X-30076905Y81878810D01*
X-30076905Y81878810D02*
X-30124524Y81926429D01*
X-30124524Y81926429D02*
X-30219762Y81974048D01*
%TO.C,R3*%
X121073380Y11183334D02*
X120597190Y10850001D01*
X121073380Y10611906D02*
X120073380Y10611906D01*
X120073380Y10611906D02*
X120073380Y10992858D01*
X120073380Y10992858D02*
X120121000Y11088096D01*
X120121000Y11088096D02*
X120168619Y11135715D01*
X120168619Y11135715D02*
X120263857Y11183334D01*
X120263857Y11183334D02*
X120406714Y11183334D01*
X120406714Y11183334D02*
X120501952Y11135715D01*
X120501952Y11135715D02*
X120549571Y11088096D01*
X120549571Y11088096D02*
X120597190Y10992858D01*
X120597190Y10992858D02*
X120597190Y10611906D01*
X120073380Y11516668D02*
X120073380Y12135715D01*
X120073380Y12135715D02*
X120454333Y11802382D01*
X120454333Y11802382D02*
X120454333Y11945239D01*
X120454333Y11945239D02*
X120501952Y12040477D01*
X120501952Y12040477D02*
X120549571Y12088096D01*
X120549571Y12088096D02*
X120644809Y12135715D01*
X120644809Y12135715D02*
X120882904Y12135715D01*
X120882904Y12135715D02*
X120978142Y12088096D01*
X120978142Y12088096D02*
X121025761Y12040477D01*
X121025761Y12040477D02*
X121073380Y11945239D01*
X121073380Y11945239D02*
X121073380Y11659525D01*
X121073380Y11659525D02*
X121025761Y11564287D01*
X121025761Y11564287D02*
X120978142Y11516668D01*
%TO.C,R7*%
X-28706667Y33527620D02*
X-29040000Y34003810D01*
X-29278095Y33527620D02*
X-29278095Y34527620D01*
X-29278095Y34527620D02*
X-28897143Y34527620D01*
X-28897143Y34527620D02*
X-28801905Y34480000D01*
X-28801905Y34480000D02*
X-28754286Y34432381D01*
X-28754286Y34432381D02*
X-28706667Y34337143D01*
X-28706667Y34337143D02*
X-28706667Y34194286D01*
X-28706667Y34194286D02*
X-28754286Y34099048D01*
X-28754286Y34099048D02*
X-28801905Y34051429D01*
X-28801905Y34051429D02*
X-28897143Y34003810D01*
X-28897143Y34003810D02*
X-29278095Y34003810D01*
X-28373333Y34527620D02*
X-27706667Y34527620D01*
X-27706667Y34527620D02*
X-28135238Y33527620D01*
D10*
%TO.C,TH1*%
X-46248427Y84587144D02*
X-46248427Y85312858D01*
X-44978427Y84950001D02*
X-46248427Y84950001D01*
X-44978427Y85736191D02*
X-46248427Y85736191D01*
X-45643665Y85736191D02*
X-45643665Y86461906D01*
X-44978427Y86461906D02*
X-46248427Y86461906D01*
X-44978427Y87731906D02*
X-44978427Y87006191D01*
X-44978427Y87369048D02*
X-46248427Y87369048D01*
X-46248427Y87369048D02*
X-46066998Y87248096D01*
X-46066998Y87248096D02*
X-45946046Y87127144D01*
X-45946046Y87127144D02*
X-45885570Y87006191D01*
%TO.C,IC2*%
X106128237Y16503427D02*
X106128237Y17773427D01*
X107458714Y16624379D02*
X107398238Y16563903D01*
X107398238Y16563903D02*
X107216809Y16503427D01*
X107216809Y16503427D02*
X107095857Y16503427D01*
X107095857Y16503427D02*
X106914428Y16563903D01*
X106914428Y16563903D02*
X106793476Y16684855D01*
X106793476Y16684855D02*
X106732999Y16805808D01*
X106732999Y16805808D02*
X106672523Y17047712D01*
X106672523Y17047712D02*
X106672523Y17229141D01*
X106672523Y17229141D02*
X106732999Y17471046D01*
X106732999Y17471046D02*
X106793476Y17591998D01*
X106793476Y17591998D02*
X106914428Y17712950D01*
X106914428Y17712950D02*
X107095857Y17773427D01*
X107095857Y17773427D02*
X107216809Y17773427D01*
X107216809Y17773427D02*
X107398238Y17712950D01*
X107398238Y17712950D02*
X107458714Y17652474D01*
X107942523Y17652474D02*
X108002999Y17712950D01*
X108002999Y17712950D02*
X108123952Y17773427D01*
X108123952Y17773427D02*
X108426333Y17773427D01*
X108426333Y17773427D02*
X108547285Y17712950D01*
X108547285Y17712950D02*
X108607761Y17652474D01*
X108607761Y17652474D02*
X108668238Y17531522D01*
X108668238Y17531522D02*
X108668238Y17410570D01*
X108668238Y17410570D02*
X108607761Y17229141D01*
X108607761Y17229141D02*
X107882047Y16503427D01*
X107882047Y16503427D02*
X108668238Y16503427D01*
D11*
%TO.C,Arduino1*%
X-146429Y104853334D02*
X329761Y104853334D01*
X-241667Y104567620D02*
X91666Y105567620D01*
X91666Y105567620D02*
X424999Y104567620D01*
X758333Y104567620D02*
X758333Y105234286D01*
X758333Y105043810D02*
X805952Y105139048D01*
X805952Y105139048D02*
X853571Y105186667D01*
X853571Y105186667D02*
X948809Y105234286D01*
X948809Y105234286D02*
X1044047Y105234286D01*
X1805952Y104567620D02*
X1805952Y105567620D01*
X1805952Y104615239D02*
X1710714Y104567620D01*
X1710714Y104567620D02*
X1520238Y104567620D01*
X1520238Y104567620D02*
X1425000Y104615239D01*
X1425000Y104615239D02*
X1377381Y104662858D01*
X1377381Y104662858D02*
X1329762Y104758096D01*
X1329762Y104758096D02*
X1329762Y105043810D01*
X1329762Y105043810D02*
X1377381Y105139048D01*
X1377381Y105139048D02*
X1425000Y105186667D01*
X1425000Y105186667D02*
X1520238Y105234286D01*
X1520238Y105234286D02*
X1710714Y105234286D01*
X1710714Y105234286D02*
X1805952Y105186667D01*
X2710714Y105234286D02*
X2710714Y104567620D01*
X2282143Y105234286D02*
X2282143Y104710477D01*
X2282143Y104710477D02*
X2329762Y104615239D01*
X2329762Y104615239D02*
X2425000Y104567620D01*
X2425000Y104567620D02*
X2567857Y104567620D01*
X2567857Y104567620D02*
X2663095Y104615239D01*
X2663095Y104615239D02*
X2710714Y104662858D01*
X3186905Y104567620D02*
X3186905Y105234286D01*
X3186905Y105567620D02*
X3139286Y105520000D01*
X3139286Y105520000D02*
X3186905Y105472381D01*
X3186905Y105472381D02*
X3234524Y105520000D01*
X3234524Y105520000D02*
X3186905Y105567620D01*
X3186905Y105567620D02*
X3186905Y105472381D01*
X3663095Y105234286D02*
X3663095Y104567620D01*
X3663095Y105139048D02*
X3710714Y105186667D01*
X3710714Y105186667D02*
X3805952Y105234286D01*
X3805952Y105234286D02*
X3948809Y105234286D01*
X3948809Y105234286D02*
X4044047Y105186667D01*
X4044047Y105186667D02*
X4091666Y105091429D01*
X4091666Y105091429D02*
X4091666Y104567620D01*
X4710714Y104567620D02*
X4615476Y104615239D01*
X4615476Y104615239D02*
X4567857Y104662858D01*
X4567857Y104662858D02*
X4520238Y104758096D01*
X4520238Y104758096D02*
X4520238Y105043810D01*
X4520238Y105043810D02*
X4567857Y105139048D01*
X4567857Y105139048D02*
X4615476Y105186667D01*
X4615476Y105186667D02*
X4710714Y105234286D01*
X4710714Y105234286D02*
X4853571Y105234286D01*
X4853571Y105234286D02*
X4948809Y105186667D01*
X4948809Y105186667D02*
X4996428Y105139048D01*
X4996428Y105139048D02*
X5044047Y105043810D01*
X5044047Y105043810D02*
X5044047Y104758096D01*
X5044047Y104758096D02*
X4996428Y104662858D01*
X4996428Y104662858D02*
X4948809Y104615239D01*
X4948809Y104615239D02*
X4853571Y104567620D01*
X4853571Y104567620D02*
X4710714Y104567620D01*
X5996428Y104567620D02*
X5425000Y104567620D01*
X5710714Y104567620D02*
X5710714Y105567620D01*
X5710714Y105567620D02*
X5615476Y105424762D01*
X5615476Y105424762D02*
X5520238Y105329524D01*
X5520238Y105329524D02*
X5425000Y105281905D01*
%TO.C,R2*%
X133084333Y9102620D02*
X132751000Y9578810D01*
X132512905Y9102620D02*
X132512905Y10102620D01*
X132512905Y10102620D02*
X132893857Y10102620D01*
X132893857Y10102620D02*
X132989095Y10055000D01*
X132989095Y10055000D02*
X133036714Y10007381D01*
X133036714Y10007381D02*
X133084333Y9912143D01*
X133084333Y9912143D02*
X133084333Y9769286D01*
X133084333Y9769286D02*
X133036714Y9674048D01*
X133036714Y9674048D02*
X132989095Y9626429D01*
X132989095Y9626429D02*
X132893857Y9578810D01*
X132893857Y9578810D02*
X132512905Y9578810D01*
X133465286Y10007381D02*
X133512905Y10055000D01*
X133512905Y10055000D02*
X133608143Y10102620D01*
X133608143Y10102620D02*
X133846238Y10102620D01*
X133846238Y10102620D02*
X133941476Y10055000D01*
X133941476Y10055000D02*
X133989095Y10007381D01*
X133989095Y10007381D02*
X134036714Y9912143D01*
X134036714Y9912143D02*
X134036714Y9816905D01*
X134036714Y9816905D02*
X133989095Y9674048D01*
X133989095Y9674048D02*
X133417667Y9102620D01*
X133417667Y9102620D02*
X134036714Y9102620D01*
%TO.C,R6*%
X125853380Y16653334D02*
X125377190Y16320001D01*
X125853380Y16081906D02*
X124853380Y16081906D01*
X124853380Y16081906D02*
X124853380Y16462858D01*
X124853380Y16462858D02*
X124901000Y16558096D01*
X124901000Y16558096D02*
X124948619Y16605715D01*
X124948619Y16605715D02*
X125043857Y16653334D01*
X125043857Y16653334D02*
X125186714Y16653334D01*
X125186714Y16653334D02*
X125281952Y16605715D01*
X125281952Y16605715D02*
X125329571Y16558096D01*
X125329571Y16558096D02*
X125377190Y16462858D01*
X125377190Y16462858D02*
X125377190Y16081906D01*
X124853380Y17510477D02*
X124853380Y17320001D01*
X124853380Y17320001D02*
X124901000Y17224763D01*
X124901000Y17224763D02*
X124948619Y17177144D01*
X124948619Y17177144D02*
X125091476Y17081906D01*
X125091476Y17081906D02*
X125281952Y17034287D01*
X125281952Y17034287D02*
X125662904Y17034287D01*
X125662904Y17034287D02*
X125758142Y17081906D01*
X125758142Y17081906D02*
X125805761Y17129525D01*
X125805761Y17129525D02*
X125853380Y17224763D01*
X125853380Y17224763D02*
X125853380Y17415239D01*
X125853380Y17415239D02*
X125805761Y17510477D01*
X125805761Y17510477D02*
X125758142Y17558096D01*
X125758142Y17558096D02*
X125662904Y17605715D01*
X125662904Y17605715D02*
X125424809Y17605715D01*
X125424809Y17605715D02*
X125329571Y17558096D01*
X125329571Y17558096D02*
X125281952Y17510477D01*
X125281952Y17510477D02*
X125234333Y17415239D01*
X125234333Y17415239D02*
X125234333Y17224763D01*
X125234333Y17224763D02*
X125281952Y17129525D01*
X125281952Y17129525D02*
X125329571Y17081906D01*
X125329571Y17081906D02*
X125424809Y17034287D01*
%TO.C,C1*%
X-60636667Y18172858D02*
X-60684286Y18125239D01*
X-60684286Y18125239D02*
X-60827143Y18077620D01*
X-60827143Y18077620D02*
X-60922381Y18077620D01*
X-60922381Y18077620D02*
X-61065238Y18125239D01*
X-61065238Y18125239D02*
X-61160476Y18220477D01*
X-61160476Y18220477D02*
X-61208095Y18315715D01*
X-61208095Y18315715D02*
X-61255714Y18506191D01*
X-61255714Y18506191D02*
X-61255714Y18649048D01*
X-61255714Y18649048D02*
X-61208095Y18839524D01*
X-61208095Y18839524D02*
X-61160476Y18934762D01*
X-61160476Y18934762D02*
X-61065238Y19030000D01*
X-61065238Y19030000D02*
X-60922381Y19077620D01*
X-60922381Y19077620D02*
X-60827143Y19077620D01*
X-60827143Y19077620D02*
X-60684286Y19030000D01*
X-60684286Y19030000D02*
X-60636667Y18982381D01*
X-59684286Y18077620D02*
X-60255714Y18077620D01*
X-59970000Y18077620D02*
X-59970000Y19077620D01*
X-59970000Y19077620D02*
X-60065238Y18934762D01*
X-60065238Y18934762D02*
X-60160476Y18839524D01*
X-60160476Y18839524D02*
X-60255714Y18791905D01*
%TO.C,R11*%
X120243142Y-947380D02*
X119909809Y-471190D01*
X119671714Y-947380D02*
X119671714Y52620D01*
X119671714Y52620D02*
X120052666Y52620D01*
X120052666Y52620D02*
X120147904Y5000D01*
X120147904Y5000D02*
X120195523Y-42619D01*
X120195523Y-42619D02*
X120243142Y-137857D01*
X120243142Y-137857D02*
X120243142Y-280714D01*
X120243142Y-280714D02*
X120195523Y-375952D01*
X120195523Y-375952D02*
X120147904Y-423571D01*
X120147904Y-423571D02*
X120052666Y-471190D01*
X120052666Y-471190D02*
X119671714Y-471190D01*
X121195523Y-947380D02*
X120624095Y-947380D01*
X120909809Y-947380D02*
X120909809Y52620D01*
X120909809Y52620D02*
X120814571Y-90238D01*
X120814571Y-90238D02*
X120719333Y-185476D01*
X120719333Y-185476D02*
X120624095Y-233095D01*
X122147904Y-947380D02*
X121576476Y-947380D01*
X121862190Y-947380D02*
X121862190Y52620D01*
X121862190Y52620D02*
X121766952Y-90238D01*
X121766952Y-90238D02*
X121671714Y-185476D01*
X121671714Y-185476D02*
X121576476Y-233095D01*
%TO.C,R5*%
X126353380Y19303334D02*
X125877190Y18970001D01*
X126353380Y18731906D02*
X125353380Y18731906D01*
X125353380Y18731906D02*
X125353380Y19112858D01*
X125353380Y19112858D02*
X125401000Y19208096D01*
X125401000Y19208096D02*
X125448619Y19255715D01*
X125448619Y19255715D02*
X125543857Y19303334D01*
X125543857Y19303334D02*
X125686714Y19303334D01*
X125686714Y19303334D02*
X125781952Y19255715D01*
X125781952Y19255715D02*
X125829571Y19208096D01*
X125829571Y19208096D02*
X125877190Y19112858D01*
X125877190Y19112858D02*
X125877190Y18731906D01*
X125353380Y20208096D02*
X125353380Y19731906D01*
X125353380Y19731906D02*
X125829571Y19684287D01*
X125829571Y19684287D02*
X125781952Y19731906D01*
X125781952Y19731906D02*
X125734333Y19827144D01*
X125734333Y19827144D02*
X125734333Y20065239D01*
X125734333Y20065239D02*
X125781952Y20160477D01*
X125781952Y20160477D02*
X125829571Y20208096D01*
X125829571Y20208096D02*
X125924809Y20255715D01*
X125924809Y20255715D02*
X126162904Y20255715D01*
X126162904Y20255715D02*
X126258142Y20208096D01*
X126258142Y20208096D02*
X126305761Y20160477D01*
X126305761Y20160477D02*
X126353380Y20065239D01*
X126353380Y20065239D02*
X126353380Y19827144D01*
X126353380Y19827144D02*
X126305761Y19731906D01*
X126305761Y19731906D02*
X126258142Y19684287D01*
D10*
%TO.C,IC1*%
X-20834763Y42428427D02*
X-20834763Y43698427D01*
X-19504286Y42549379D02*
X-19564762Y42488903D01*
X-19564762Y42488903D02*
X-19746191Y42428427D01*
X-19746191Y42428427D02*
X-19867143Y42428427D01*
X-19867143Y42428427D02*
X-20048572Y42488903D01*
X-20048572Y42488903D02*
X-20169524Y42609855D01*
X-20169524Y42609855D02*
X-20230001Y42730808D01*
X-20230001Y42730808D02*
X-20290477Y42972712D01*
X-20290477Y42972712D02*
X-20290477Y43154141D01*
X-20290477Y43154141D02*
X-20230001Y43396046D01*
X-20230001Y43396046D02*
X-20169524Y43516998D01*
X-20169524Y43516998D02*
X-20048572Y43637950D01*
X-20048572Y43637950D02*
X-19867143Y43698427D01*
X-19867143Y43698427D02*
X-19746191Y43698427D01*
X-19746191Y43698427D02*
X-19564762Y43637950D01*
X-19564762Y43637950D02*
X-19504286Y43577474D01*
X-18294762Y42428427D02*
X-19020477Y42428427D01*
X-18657620Y42428427D02*
X-18657620Y43698427D01*
X-18657620Y43698427D02*
X-18778572Y43516998D01*
X-18778572Y43516998D02*
X-18899524Y43396046D01*
X-18899524Y43396046D02*
X-19020477Y43335570D01*
D11*
%TO.C,R4*%
X128873380Y11333334D02*
X128397190Y11000001D01*
X128873380Y10761906D02*
X127873380Y10761906D01*
X127873380Y10761906D02*
X127873380Y11142858D01*
X127873380Y11142858D02*
X127921000Y11238096D01*
X127921000Y11238096D02*
X127968619Y11285715D01*
X127968619Y11285715D02*
X128063857Y11333334D01*
X128063857Y11333334D02*
X128206714Y11333334D01*
X128206714Y11333334D02*
X128301952Y11285715D01*
X128301952Y11285715D02*
X128349571Y11238096D01*
X128349571Y11238096D02*
X128397190Y11142858D01*
X128397190Y11142858D02*
X128397190Y10761906D01*
X128206714Y12190477D02*
X128873380Y12190477D01*
X127825761Y11952382D02*
X128540047Y11714287D01*
X128540047Y11714287D02*
X128540047Y12333334D01*
%TO.C,R1*%
X133159333Y10477620D02*
X132826000Y10953810D01*
X132587905Y10477620D02*
X132587905Y11477620D01*
X132587905Y11477620D02*
X132968857Y11477620D01*
X132968857Y11477620D02*
X133064095Y11430000D01*
X133064095Y11430000D02*
X133111714Y11382381D01*
X133111714Y11382381D02*
X133159333Y11287143D01*
X133159333Y11287143D02*
X133159333Y11144286D01*
X133159333Y11144286D02*
X133111714Y11049048D01*
X133111714Y11049048D02*
X133064095Y11001429D01*
X133064095Y11001429D02*
X132968857Y10953810D01*
X132968857Y10953810D02*
X132587905Y10953810D01*
X134111714Y10477620D02*
X133540286Y10477620D01*
X133826000Y10477620D02*
X133826000Y11477620D01*
X133826000Y11477620D02*
X133730762Y11334762D01*
X133730762Y11334762D02*
X133635524Y11239524D01*
X133635524Y11239524D02*
X133540286Y11191905D01*
D12*
%TO.C,J1*%
X-70495000Y49795000D02*
X-70495000Y38295000D01*
X-70495000Y38295000D02*
X-67955000Y38295000D01*
X-62875000Y49795000D02*
X-70495000Y49795000D01*
X-56495000Y49795000D02*
X-57795000Y49795000D01*
X-56495000Y41295000D02*
X-56495000Y49795000D01*
D13*
%TO.C,TH1*%
X-48945000Y75720000D02*
X-41945000Y75720000D01*
X-41945000Y75720000D02*
X-41945000Y96720000D01*
D12*
X-41545000Y82470000D02*
X-41545000Y82470000D01*
X-41445000Y82470000D02*
X-41445000Y82470000D01*
D13*
X-48945000Y96720000D02*
X-48945000Y75720000D01*
X-41945000Y96720000D02*
X-48945000Y96720000D01*
D12*
X-41445000Y82470000D02*
G75*
G03*
X-41545000Y82470000I-50000J0D01*
G01*
X-41545000Y82470000D02*
G75*
G03*
X-41445000Y82470000I50000J0D01*
G01*
D13*
%TO.C,IC2*%
X111043000Y14120000D02*
X109568000Y14120000D01*
X109218000Y14470000D02*
X105518000Y14470000D01*
X109218000Y19470000D02*
X109218000Y14470000D01*
X105518000Y14470000D02*
X105518000Y19470000D01*
X105518000Y19470000D02*
X109218000Y19470000D01*
D14*
%TO.C,Arduino1*%
X0Y101600000D02*
X53340000Y101600000D01*
X0Y0D02*
X0Y101600000D01*
X53340000Y101600000D02*
X53340000Y0D01*
X53340000Y0D02*
X0Y0D01*
D13*
X-480000Y73660000D02*
G75*
G03*
X-480000Y73660000I-100000J0D01*
G01*
D15*
%TO.C,C1*%
X-58095000Y19710000D02*
X-58470000Y19710000D01*
X-58282500Y19522500D02*
X-58282500Y19897500D01*
X-58899437Y20085000D02*
X-59599437Y19385000D01*
X-58899437Y22205000D02*
X-59599437Y22905000D01*
X-59599437Y19385000D02*
X-62230000Y19385000D01*
X-59599437Y22905000D02*
X-62230000Y22905000D01*
X-62230000Y19385000D02*
X-62230000Y20085000D01*
X-62230000Y22905000D02*
X-62230000Y22205000D01*
D13*
%TO.C,IC1*%
X-16120000Y40315000D02*
X-17647000Y40315000D01*
X-17997000Y40443000D02*
X-21193000Y40443000D01*
X-17997000Y45347000D02*
X-17997000Y40443000D01*
X-21193000Y40443000D02*
X-21193000Y45347000D01*
X-21193000Y45347000D02*
X-17997000Y45347000D01*
%TD*%
M02*
