%TF.GenerationSoftware,KiCad,Pcbnew,(7.0.0)*%
%TF.CreationDate,2023-04-07T11:52:31+02:00*%
%TF.ProjectId,projet codepo test,70726f6a-6574-4206-936f-6465706f2074,rev?*%
%TF.SameCoordinates,PX7414cc0PY6f80ec0*%
%TF.FileFunction,Soldermask,Bot*%
%TF.FilePolarity,Negative*%
%FSLAX46Y46*%
G04 Gerber Fmt 4.6, Leading zero omitted, Abs format (unit mm)*
G04 Created by KiCad (PCBNEW (7.0.0)) date 2023-04-07 11:52:31*
%MOMM*%
%LPD*%
G01*
G04 APERTURE LIST*
%ADD10C,2.955000*%
%ADD11R,1.800000X1.800000*%
%ADD12C,1.800000*%
%ADD13C,3.200000*%
%ADD14C,1.358000*%
%ADD15C,1.458000*%
%ADD16R,1.358000X1.358000*%
G04 APERTURE END LIST*
D10*
%TO.C,J1*%
X-68495000Y43795000D03*
X-60695000Y48995000D03*
X-62095000Y46295000D03*
X-57495000Y39795000D03*
X-65095000Y39295000D03*
%TD*%
D11*
%TO.C,TH1*%
X-45444999Y82469999D03*
D12*
X-45445000Y89970000D03*
%TD*%
D13*
%TO.C,Arduino1*%
X2540000Y87630000D03*
X2540000Y5080000D03*
X7620000Y35560000D03*
X35560000Y35560000D03*
X50800000Y86360000D03*
X50800000Y11430000D03*
D14*
X50800000Y38100000D03*
X50800000Y40640000D03*
X50800000Y43180000D03*
X50800000Y45720000D03*
X2540000Y66040000D03*
X50800000Y48260000D03*
X50800000Y50800000D03*
X2540000Y63500000D03*
D15*
X50800000Y7620000D03*
X50800000Y5080000D03*
D14*
X50800000Y53340000D03*
X50800000Y55880000D03*
X50800000Y59944000D03*
X50800000Y62484000D03*
X50800000Y65024000D03*
X50800000Y67564000D03*
X50800000Y70104000D03*
X50800000Y72644000D03*
X50800000Y33020000D03*
X50800000Y30480000D03*
X50800000Y27940000D03*
X50800000Y25400000D03*
X50800000Y22860000D03*
X50800000Y20320000D03*
X50800000Y17780000D03*
X50800000Y15240000D03*
D15*
X48260000Y7620000D03*
X48260000Y5080000D03*
X45720000Y7620000D03*
X45720000Y5080000D03*
X43180000Y7620000D03*
X43180000Y5080000D03*
X40640000Y7620000D03*
X40640000Y5080000D03*
X38100000Y7620000D03*
X38100000Y5080000D03*
X35560000Y7620000D03*
X35560000Y5080000D03*
X33020000Y7620000D03*
X33020000Y5080000D03*
X30480000Y7620000D03*
X30480000Y5080000D03*
X27940000Y7620000D03*
X27940000Y5080000D03*
X25400000Y7620000D03*
X25400000Y5080000D03*
X22860000Y7620000D03*
X22860000Y5080000D03*
X20320000Y7620000D03*
X20320000Y5080000D03*
X17780000Y7620000D03*
X17780000Y5080000D03*
X15240000Y7620000D03*
X15240000Y5080000D03*
X12700000Y7620000D03*
X12700000Y5080000D03*
X10160000Y7620000D03*
X10160000Y5080000D03*
D14*
X2540000Y50800000D03*
X2540000Y48260000D03*
X2540000Y45720000D03*
X2540000Y43180000D03*
X2540000Y40640000D03*
X2540000Y38100000D03*
X2540000Y35560000D03*
X2540000Y33020000D03*
X2540000Y27940000D03*
X2540000Y25400000D03*
X2540000Y22860000D03*
X2540000Y20320000D03*
X50800000Y77724000D03*
X2540000Y12700000D03*
X2540000Y10160000D03*
X2540000Y17780000D03*
X2540000Y15240000D03*
X2540000Y60960000D03*
X2540000Y58420000D03*
X50800000Y75184000D03*
D15*
X7620000Y7620000D03*
X7620000Y5080000D03*
D14*
X2540000Y71120000D03*
D16*
X2539999Y73659999D03*
D14*
X2540000Y68580000D03*
X50800000Y82804000D03*
X50800000Y80264000D03*
X2540000Y55880000D03*
%TD*%
M02*
